HIERARCHY
ROOT root
{
	OFFSET 0.000000 0.000000 0.000000
	CHANNELS 6 Xposition Yposition Zposition Zrotation Yrotation Xrotation
	JOINT lhip
	{
		OFFSET 0.058581 -0.082280 -0.017664
		CHANNELS 3 Zrotation Yrotation Xrotation
		JOINT lknee
		{
			OFFSET 0.043451 -0.386469 0.008037
			CHANNELS 3 Zrotation Yrotation Xrotation
			JOINT lankle
			{
				OFFSET -0.014790 -0.426874 -0.037428
				CHANNELS 3 Zrotation Yrotation Xrotation
				JOINT ltoe
				{
					OFFSET 0.041054 -0.060286 0.122042
					CHANNELS 3 Zrotation Yrotation Xrotation
					End Site
					{
						OFFSET 0.000000 0.000000 0.000000
					}
				}
			}
		}
	}
	JOINT rhip
	{
		OFFSET -0.060310 -0.090513 -0.013543
		CHANNELS 3 Zrotation Yrotation Xrotation
		JOINT rknee
		{
			OFFSET -0.043257 -0.383688 -0.004843
			CHANNELS 3 Zrotation Yrotation Xrotation
			JOINT rankle
			{
				OFFSET 0.019056 -0.420046 -0.034562
				CHANNELS 3 Zrotation Yrotation Xrotation
				JOINT rtoe
				{
					OFFSET -0.034840 -0.062106 0.130323
					CHANNELS 3 Zrotation Yrotation Xrotation
					End Site
					{
						OFFSET 0.000000 0.000000 0.000000
					}
				}
			}
		}
	}
	JOINT lowerback
	{
		OFFSET 0.004439 0.124404 -0.038385
		CHANNELS 3 Zrotation Yrotation Xrotation
		JOINT upperback
		{
			OFFSET 0.004488 0.137956 0.026820
			CHANNELS 3 Zrotation Yrotation Xrotation
			JOINT chest
			{
				OFFSET -0.002265 0.056032 0.002855
				CHANNELS 3 Zrotation Yrotation Xrotation
				JOINT lowerneck
				{
					OFFSET -0.013390 0.211636 -0.033468
					CHANNELS 3 Zrotation Yrotation Xrotation
					JOINT upperneck
					{
						OFFSET 0.010113 0.088937 0.050410
						CHANNELS 3 Zrotation Yrotation Xrotation
						End Site
						{
							OFFSET 0.000000 0.000000 0.000000
						}
					}
				}
				JOINT lclavicle
				{
					OFFSET 0.071702 0.114000 -0.018898
					CHANNELS 3 Zrotation Yrotation Xrotation
					JOINT lshoulder
					{
						OFFSET 0.122921 0.045205 -0.019046
						CHANNELS 3 Zrotation Yrotation Xrotation
						JOINT lelbow
						{
							OFFSET 0.255332 -0.015649 -0.022946
							CHANNELS 3 Zrotation Yrotation Xrotation
							JOINT lwrist
							{
								OFFSET 0.265709 0.012698 -0.007375
								CHANNELS 3 Zrotation Yrotation Xrotation
								End Site
								{
									OFFSET 0.000000 0.000000 0.000000
								}
							}
						}
					}
				}
				JOINT rclavicle
				{
					OFFSET -0.082954 0.112472 -0.023707
					CHANNELS 3 Zrotation Yrotation Xrotation
					JOINT rshoulder
					{
						OFFSET -0.113228 0.046853 -0.008472
						CHANNELS 3 Zrotation Yrotation Xrotation
						JOINT relbow
						{
							OFFSET -0.260127 -0.014369 -0.031269
							CHANNELS 3 Zrotation Yrotation Xrotation
							JOINT rwrist
							{
								OFFSET -0.269108 0.006794 -0.006027
								CHANNELS 3 Zrotation Yrotation Xrotation
								End Site
								{
									OFFSET 0.000000 0.000000 0.000000
								}
							}
						}
					}
				}
			}
		}
	}
}
MOTION
Frames: 5
Frame Time: 0.033333
0.055326 0.198161 0.996350 -175.951243 1.481423 93.739067 8.723113 1.071825 -4.869586 -0.778372 -1.358195 -0.639338 -3.930817 7.743815 -2.254327 0.000000 -0.000000 0.000000 -2.689443 -0.248956 -8.316530 1.405444 -1.985769 7.891593 3.289747 -4.107385 -4.964973 0.000000 -0.000000 0.000000 0.866801 -2.882752 14.396796 1.025527 -2.895041 6.794539 3.091878 -1.904023 -2.243816 -8.705909 -6.123124 12.003042 2.639055 3.138043 -2.275252 -18.363844 4.174366 8.675952 -49.554498 2.064007 7.280976 107.336164 -77.694041 -93.362488 -22.862282 -24.121136 -21.415390 9.042627 0.514115 7.234097 35.568052 -10.657273 13.293825 159.245420 76.784462 175.026462 34.535783 32.957116 -28.075238 
0.058503 0.192606 0.997135 -175.844704 1.532264 94.277776 8.958688 1.214075 -5.817789 -0.836179 -1.584391 -0.808913 -4.023729 7.993524 -1.589804 0.000000 -0.000000 0.000000 -2.513742 -0.083301 -9.257028 1.512787 -2.119784 7.799228 3.165386 -4.312828 -4.598192 0.000000 -0.000000 0.000000 1.126246 -3.063617 16.047770 0.646104 -2.739495 7.416664 2.710932 -1.963466 -1.485402 -9.338538 -5.953969 13.795988 2.836599 3.466080 -1.940117 -17.288372 4.429863 9.463610 -48.796129 2.663941 7.425267 111.959943 -78.595075 -98.073648 -22.024837 -24.583031 -23.316006 7.317808 0.530984 7.661089 35.992499 -11.053267 13.838563 155.536111 76.153040 170.946162 33.165084 33.657706 -29.571924 
0.062176 0.186787 0.998166 -175.952131 1.615415 94.642118 9.286640 1.528827 -6.587869 -0.887562 -1.627648 -0.916370 -4.223282 8.119689 -1.104704 0.000000 -0.000000 0.000000 -2.266825 0.058355 -10.059173 1.609144 -2.088145 7.660496 3.209616 -4.412472 -4.165061 0.000000 -0.000000 0.000000 1.194072 -3.064729 18.219306 0.189302 -2.477045 8.186650 2.564413 -2.017427 -1.129605 -9.958952 -5.581304 15.666262 3.107902 4.143343 -1.491251 -16.625955 4.480760 10.208049 -48.066931 3.653808 7.046642 115.893364 -79.328655 -102.456469 -23.201122 -26.102504 -23.735238 6.121011 0.736979 8.043077 36.347258 -12.081496 13.837749 152.120548 75.580717 166.896283 34.418817 34.806108 -29.849942 
0.067103 0.178322 0.998429 -176.034145 1.700892 95.512942 9.688290 1.703960 -8.324172 -0.938144 -1.701848 -0.641644 -4.326942 8.460601 -0.508970 0.000000 -0.000000 0.000000 -1.992520 0.329318 -11.791198 1.765062 -2.052906 7.833886 3.084595 -4.588523 -3.743134 0.000000 -0.000000 0.000000 1.209120 -3.054540 20.957274 -0.201957 -1.993095 8.553583 2.364928 -1.962869 -0.603981 -10.318256 -4.944181 17.953459 3.187912 4.615992 -0.065390 -16.000872 5.110979 10.570888 -47.056914 4.372598 6.736560 122.203380 -80.551704 -108.911472 -23.928390 -26.777091 -24.591077 4.989802 0.435009 8.647166 36.421576 -12.941091 13.810711 148.138834 74.695925 162.596417 32.740925 35.376571 -31.233781 
0.069434 0.173158 0.998473 -175.655359 1.796050 95.995863 9.966300 1.586543 -9.461964 -0.944714 -1.746549 -0.376579 -4.540888 8.376676 -0.198515 0.000000 -0.000000 0.000000 -1.901040 0.311366 -12.575080 1.957481 -2.378609 7.615392 3.148185 -4.630806 -3.457568 0.000000 -0.000000 0.000000 1.490123 -3.281855 22.712226 -0.416754 -2.017694 8.860031 2.275220 -2.038988 -0.212512 -10.494206 -4.370837 18.907793 3.177593 4.893381 0.579917 -16.133410 5.411211 10.859598 -46.571483 5.100819 6.683732 124.612023 -80.443658 -111.591372 -24.015213 -27.341138 -24.348954 4.742737 0.256562 8.786886 35.962601 -13.443116 13.817518 146.816443 74.088800 160.923272 31.788410 35.945119 -32.224734 
